<svg xmlns="http://www.w3.org/2000/svg" width="900" height="300" viewBox="0 0 900 300"><rect width="100%" height="100%" fill="#DDDDDD"/><path fill="#999999" d="M198.17 132.81q0 7.2 3.72 10.97 3.72 3.78 10.56 3.78 3.57 0 6.36-1.13 2.8-1.13 4.7-3.09 1.91-1.97 2.89-4.64.98-2.68.98-5.78 0-3.51-1.07-6.27-1.07-2.77-3.03-4.67-1.97-1.91-4.67-2.92-2.71-1.01-5.92-1.01-3.34 0-6.01 1.1-2.68 1.1-4.59 3.06-1.9 1.97-2.91 4.68-1.01 2.7-1.01 5.92Zm-7.2 60.21 26.71-33.38q1.02-1.25 1.91-2.44.89-1.19 1.72-2.38-2.97 1.9-6.54 2.89-3.57.98-7.5.98-4.46 0-8.75-1.55-4.28-1.55-7.61-4.67t-5.39-7.73q-2.05-4.62-2.05-10.8 0-5.78 2.14-10.83 2.15-5.06 6.01-8.87 3.87-3.81 9.28-6.01 5.42-2.2 11.96-2.2 6.61 0 11.87 2.08 5.27 2.09 8.99 5.83 3.72 3.75 5.71 8.99 1.99 5.23 1.99 11.48 0 3.99-.68 7.56-.68 3.57-1.93 6.87-1.25 3.3-3.04 6.46-1.78 3.15-3.98 6.24l-19.7 28.09q-1.01 1.43-3.03 2.41-2.03.98-4.59.98h-13.5ZM313.6 150q0 11.25-2.41 19.55t-6.67 13.71q-4.25 5.42-10.05 8.06-5.8 2.65-12.53 2.65-6.72 0-12.46-2.65-5.74-2.64-9.97-8.06-4.22-5.41-6.6-13.71T250.53 150q0-11.3 2.38-19.57t6.6-13.69q4.23-5.41 9.97-8.06 5.74-2.65 12.46-2.65 6.73 0 12.53 2.65 5.8 2.65 10.05 8.06 4.26 5.42 6.67 13.69T313.6 150Zm-15.17 0q0-9.34-1.37-15.47-1.37-6.13-3.66-9.76t-5.27-5.08q-2.97-1.46-6.19-1.46-3.15 0-6.09 1.46-2.95 1.45-5.21 5.08t-3.6 9.76q-1.34 6.13-1.34 15.47t1.34 15.47q1.34 6.13 3.6 9.76t5.21 5.09q2.94 1.45 6.09 1.45 3.22 0 6.19-1.45 2.98-1.46 5.27-5.09 2.29-3.63 3.66-9.76t1.37-15.47Zm84.19 0q0 11.25-2.41 19.55t-6.67 13.71q-4.25 5.42-10.05 8.06-5.8 2.65-12.53 2.65-6.72 0-12.46-2.65-5.74-2.64-9.97-8.06-4.22-5.41-6.6-13.71T319.55 150q0-11.3 2.38-19.57t6.6-13.69q4.23-5.41 9.97-8.06 5.74-2.65 12.46-2.65 6.73 0 12.53 2.65 5.8 2.65 10.05 8.06 4.26 5.42 6.67 13.69t2.41 19.57Zm-15.17 0q0-9.34-1.37-15.47-1.37-6.13-3.66-9.76t-5.27-5.08q-2.97-1.46-6.19-1.46-3.15 0-6.09 1.46-2.95 1.45-5.21 5.08t-3.6 9.76q-1.34 6.13-1.34 15.47t1.34 15.47q1.34 6.13 3.6 9.76t5.21 5.09q2.94 1.45 6.09 1.45 3.22 0 6.19-1.45 2.98-1.46 5.27-5.09 2.29-3.63 3.66-9.76t1.37-15.47Zm109.65 23.33-7.79 7.67-20.17-20.17-20.35 20.29-7.79-7.68 20.34-20.4-19.39-19.4 7.73-7.74 19.4 19.4 19.28-19.28 7.85 7.74-19.34 19.34 20.23 20.23Zm49.51-41-7.74-1.37q.9-6.19 3.45-10.86 2.56-4.67 6.4-7.79 3.84-3.13 8.81-4.7 4.96-1.58 10.68-1.58 5.95 0 10.74 1.7 4.79 1.69 8.18 4.7 3.39 3 5.2 7.05 1.82 4.04 1.82 8.74 0 4.11-.92 7.23-.93 3.13-2.65 5.45-1.73 2.32-4.29 3.92-2.55 1.61-5.77 2.68 7.74 2.44 11.55 7.44 3.8 5 3.8 12.55 0 6.43-2.38 11.37-2.38 4.94-6.42 8.3-4.05 3.36-9.37 5.09-5.33 1.72-11.28 1.72-6.48 0-11.3-1.49-4.82-1.48-8.39-4.4-3.57-2.91-6.07-7.14-2.5-4.22-4.29-9.76l6.49-2.67q2.56-1.08 4.79-.57 2.23.51 3.24 2.41 1.07 2.08 2.35 4.11 1.28 2.02 3.07 3.6 1.78 1.57 4.19 2.55 2.41.99 5.74.99 3.75 0 6.55-1.22 2.79-1.22 4.67-3.19 1.87-1.96 2.8-4.37.92-2.41.92-4.85 0-3.09-.66-5.62-.65-2.53-2.73-4.32-2.09-1.78-5.98-2.79-3.9-1.01-10.45-1.01v-10.48q5.42-.06 8.99-1.01 3.57-.95 5.68-2.65 2.11-1.69 2.95-4.07.83-2.38.83-5.24 0-6.07-3.39-9.22-3.39-3.15-9.05-3.15-2.61 0-4.82.74-2.2.74-3.95 2.08-1.76 1.34-2.95 3.13-1.19 1.78-1.78 3.92-1.01 2.74-2.65 3.63-1.64.9-4.61.42ZM647.51 150q0 11.25-2.41 19.55t-6.66 13.71q-4.26 5.42-10.06 8.06-5.8 2.65-12.52 2.65-6.73 0-12.47-2.65-5.74-2.64-9.96-8.06-4.23-5.41-6.61-13.71T584.44 150q0-11.3 2.38-19.57t6.61-13.69q4.22-5.41 9.96-8.06 5.74-2.65 12.47-2.65 6.72 0 12.52 2.65t10.06 8.06q4.25 5.42 6.66 13.69t2.41 19.57Zm-15.17 0q0-9.34-1.37-15.47-1.37-6.13-3.66-9.76t-5.26-5.08q-2.98-1.46-6.19-1.46-3.16 0-6.1 1.46-2.95 1.45-5.21 5.08t-3.6 9.76q-1.34 6.13-1.34 15.47t1.34 15.47q1.34 6.13 3.6 9.76t5.21 5.09q2.94 1.45 6.1 1.45 3.21 0 6.19-1.45 2.97-1.46 5.26-5.09 2.29-3.63 3.66-9.76t1.37-15.47Zm84.19 0q0 11.25-2.41 19.55t-6.66 13.71q-4.26 5.42-10.06 8.06-5.8 2.65-12.52 2.65-6.73 0-12.47-2.65-5.74-2.64-9.96-8.06-4.23-5.41-6.61-13.71T653.46 150q0-11.3 2.38-19.57t6.61-13.69q4.22-5.41 9.96-8.06 5.74-2.65 12.47-2.65 6.72 0 12.52 2.65t10.06 8.06q4.25 5.42 6.66 13.69t2.41 19.57Zm-15.17 0q0-9.34-1.37-15.47-1.37-6.13-3.66-9.76t-5.26-5.08q-2.98-1.46-6.19-1.46-3.16 0-6.1 1.46-2.95 1.45-5.21 5.08t-3.6 9.76q-1.34 6.13-1.34 15.47t1.34 15.47q1.34 6.13 3.6 9.76t5.21 5.09q2.94 1.45 6.1 1.45 3.21 0 6.19-1.45 2.97-1.46 5.26-5.09 2.29-3.63 3.66-9.76t1.37-15.47Z"/></svg>